<svg xmlns="http://www.w3.org/2000/svg" width="117" height="57" fill="none" viewBox="0 0 117 57"><path fill="#FFAF52" stroke="#000" stroke-linejoin="round" stroke-width="1.819" d="M63.7683 3.53711L63.7273 3.54004L19.196 8.10742L19.0583 8.13281C19.0135 8.14455 18.9692 8.15924 18.9265 8.17773L1.66577 15.6592C1.32317 15.8077 1.10566 16.1503 1.11792 16.5234C1.13036 16.8968 1.37054 17.2252 1.72241 17.3506C2.36761 17.5806 3.07206 17.9577 3.84741 18.3965C4.59675 18.8205 5.42152 19.3072 6.21753 19.6768C7.0087 20.044 7.88309 20.3517 8.75464 20.3467C9.68415 20.3412 10.5507 19.98 11.2468 19.1465C11.5812 18.7462 12.1692 18.4349 13.0486 18.2578C13.9184 18.0827 14.9744 18.0592 16.1101 18.1465C18.3167 18.3162 20.6679 18.8916 22.2029 19.3857C22.8948 19.8905 23.9509 20.7611 24.9666 21.8076C25.9828 22.8548 26.9005 24.0191 27.4031 25.123L27.4978 25.3428C27.9656 26.4916 27.8009 27.0948 27.6267 27.3877C27.4294 27.7192 27.0768 27.8972 26.8162 27.9473C26.5603 27.9965 26.3375 28.1536 26.2048 28.3779C26.0722 28.6023 26.0426 28.8731 26.1228 29.1211C26.4813 30.2298 27.1268 31.8975 27.9099 33.3057C28.2997 34.0066 28.7458 34.6851 29.2351 35.2002C29.6732 35.6613 30.2805 36.1326 31.0232 36.1816C31.0308 36.1922 31.0406 36.2042 31.0505 36.2197C31.1564 36.3842 31.2811 36.6888 31.4001 37.1699C31.6349 38.119 31.784 39.4714 31.8943 41.0254C32.0042 42.5736 32.0707 44.242 32.158 45.8379C32.2332 47.2145 32.3236 48.5411 32.4734 49.6191L32.5417 50.0645C32.9243 52.3548 33.8193 54.2061 34.9607 55.166C35.5406 55.6536 36.2745 55.9796 37.0681 55.8496C37.7716 55.7343 38.3321 55.293 38.7449 54.6836L38.9119 54.4121C39.4018 53.5472 39.4191 52.4059 39.282 51.3252C39.1397 50.204 38.8046 48.9535 38.3992 47.7334C37.5869 45.2889 36.4473 42.8332 35.8191 41.5273L35.7576 41.3848C35.6386 41.0723 35.6894 40.8944 35.782 40.7285C35.9415 40.4427 36.2803 40.125 36.8699 39.6689C37.8872 38.8821 39.4871 37.8214 40.5066 36.0488L40.7029 35.6846C41.2493 34.594 41.3551 33.3225 41.2673 32.0205C41.1792 30.7141 40.8875 29.2778 40.5554 27.8096C39.879 24.8189 39.03 21.6524 39.03 18.5635C39.03 17.7946 39.0889 17.2662 39.1765 16.915C39.247 16.633 39.3234 16.5263 39.3494 16.4951C39.3642 16.4945 39.3886 16.4937 39.4265 16.499C39.5756 16.5199 39.8063 16.5974 40.1443 16.7676C40.4739 16.9335 40.8436 17.1539 41.2693 17.4141C41.6848 17.668 42.1499 17.9583 42.6326 18.2314C43.5297 18.7392 44.577 19.2452 45.6892 19.4326L45.9128 19.4658C46.5353 19.5454 47.4823 19.4975 48.5876 19.3857C49.7198 19.2712 51.1033 19.0799 52.6443 18.8379C55.7278 18.3536 59.4832 17.6595 63.197 16.9521C66.9185 16.2433 70.5913 15.5218 73.5398 14.9756C75.0128 14.7027 76.296 14.4762 77.3044 14.3174C78.3388 14.1545 79.0165 14.0752 79.323 14.0752C79.5474 14.0752 79.6846 14.1292 79.781 14.1953C79.8853 14.2669 79.9989 14.3921 80.1072 14.6094C80.3366 15.0696 80.4644 15.7818 80.5085 16.6875C80.5517 17.5742 80.5119 18.5306 80.4773 19.4375C80.4445 20.2967 80.4109 21.1899 80.5046 21.8135C80.612 22.527 80.919 23.1119 81.4021 23.5801C81.8649 24.0285 82.4541 24.3359 83.0798 24.5771C83.7074 24.819 84.4365 25.0185 85.2185 25.2168C85.6184 25.3182 86.0319 25.4185 86.4646 25.5264L87.8259 25.8779C88.21 25.9815 88.3699 26.1004 88.4314 26.1641C88.4764 26.2107 88.5036 26.2609 88.5115 26.3672C88.5211 26.4986 88.497 26.6932 88.4148 26.9756C88.3334 27.2553 88.2152 27.5576 88.0759 27.9082C87.9431 28.2426 87.7896 28.6255 87.6746 29.0029C87.5599 29.3789 87.4634 29.81 87.4753 30.251C87.4878 30.7105 87.619 31.1904 87.9607 31.6143C88.252 31.9756 88.6505 32.2385 89.1228 32.4277L89.3289 32.5049C89.8271 32.6753 90.3256 32.7848 90.78 32.7383C91.2982 32.6852 91.7715 32.4204 92.0251 31.9033C92.2364 31.4725 92.23 30.9883 92.1814 30.5957C92.1298 30.1793 92.0091 29.7144 91.8562 29.2295C91.5509 28.2615 91.0631 27.0569 90.5417 25.7461C90.0138 24.4187 89.4373 22.948 88.9265 21.3936L88.8435 21.1279C88.0352 18.4073 88.7946 16.4745 89.9773 15.3047C91.1807 14.1145 92.8253 13.6888 93.9988 13.9639L94.2263 14.0283C96.1856 14.6799 98.3692 13.8416 100.102 12.8516C101.443 12.0857 102.674 11.136 103.582 10.377L104.375 9.69531C104.398 9.67506 104.526 9.59272 104.885 9.54297C105.223 9.49599 105.665 9.49174 106.2 9.52637C107.271 9.59578 108.558 9.80999 109.852 10.0264C111.11 10.2367 112.403 10.4544 113.38 10.4912C113.855 10.5091 114.367 10.4908 114.791 10.3467C115.012 10.2716 115.271 10.1415 115.479 9.90625C115.704 9.65213 115.813 9.33809 115.813 9.0127C115.813 6.77803 114.036 2.93109 109.873 1.02246L109.769 0.982422C109.664 0.948957 109.553 0.935113 109.442 0.941406L63.7683 3.53711Z"/></svg>