<svg xmlns="http://www.w3.org/2000/svg" width="89" height="34" fill="none" viewBox="0 0 89 34"><g id="sesame"><path id="path114" fill="#fff" d="M72.3304 11.4229C72.5776 10.4552 72.673 9.51546 72.5776 8.61047C72.5361 8.21366 72.2847 7.85518 71.9128 7.71186C71.7173 7.63641 71.5254 7.62763 71.3376 7.68552C70.837 7.84001 70.6056 8.40967 70.7807 8.90309C71.0936 9.78612 71.6655 10.6141 72.3304 11.4229Z"/><path id="path140" fill="#fff" d="M78.5643 12.7793C78.9213 11.7342 79.1331 10.6926 79.1622 9.65498C79.1752 9.20009 78.9878 8.74956 78.6595 8.51973C78.4871 8.39867 78.3096 8.35381 78.1266 8.38438C77.64 8.46575 77.3495 9.06553 77.4483 9.65419C77.6255 10.7069 78.0502 11.7453 78.5643 12.7793Z"/><path id="path118" fill="#fff" d="M13.861 26.5661C13.3873 27.4002 13.0699 28.2584 12.9481 29.1466C12.8944 29.5358 13.0557 29.9589 13.3875 30.218C13.5615 30.3543 13.7479 30.4259 13.9464 30.4336C14.4747 30.4538 14.8378 29.9912 14.7836 29.4658C14.686 28.5262 14.3214 27.5525 13.861 26.5661Z"/><path id="path142" fill="#fff" d="M74.7969 0.963867C73.7698 0.571506 72.7649 0.346825 71.7879 0.331154C71.3598 0.324631 70.9622 0.548312 70.7899 0.929996C70.6991 1.13053 70.6803 1.33551 70.7331 1.54546C70.874 2.1041 71.4749 2.42738 72.0136 2.30325C72.9776 2.08095 73.8952 1.5734 74.7969 0.963867Z"/><path id="path118_2" fill="#fff" d="M7.57617 30.2458C6.64246 30.4738 5.79841 30.832 5.06665 31.3529C4.74579 31.581 4.54775 31.9885 4.58634 32.4074C4.60623 32.6274 4.68186 32.812 4.81246 32.9616C5.16022 33.3595 5.74695 33.3059 6.09315 32.906C6.71186 32.1904 7.17228 31.2573 7.57617 30.2458Z"/><path id="path122" fill="#fff" d="M9.84404 17.8316C10.3431 18.7989 10.9548 19.6175 11.7061 20.25C12.0356 20.5269 12.5189 20.5995 12.9485 20.4015C13.1741 20.2974 13.3475 20.1442 13.4682 19.9421C13.7899 19.4027 13.5703 18.7615 13.0533 18.5195C12.1286 18.0871 11.0193 17.9129 9.84404 17.8316Z"/><path id="path142_2" fill="#fff" d="M8.2207 22.8535C7.23072 23.3316 6.37841 23.9083 5.69769 24.6079C5.3997 24.9147 5.29067 25.357 5.45126 25.7438C5.53545 25.9472 5.67225 26.1012 5.86169 26.2066C6.36605 26.4868 7.01365 26.2714 7.29204 25.7946C7.79005 24.9415 8.04808 23.9266 8.2207 22.8535Z"/><path id="path118_3" fill="#fff" d="M78.8748 16.6931C77.7936 16.9211 76.8163 17.2793 75.969 17.8002C75.5975 18.0282 75.3682 18.4358 75.4128 18.8547C75.4359 19.0747 75.5234 19.2593 75.6747 19.4089C76.0773 19.8067 76.7567 19.7532 77.1576 19.3533C77.874 18.6376 78.4071 17.7045 78.8748 16.6931Z"/><path id="path118_4" fill="#fff" d="M86.5977 10.5583C85.6639 10.7863 84.8199 11.1445 84.0881 11.6654C83.7673 11.8935 83.5692 12.301 83.6078 12.7199C83.6277 12.9399 83.7033 13.1245 83.8339 13.2741C84.1817 13.672 84.7684 13.6184 85.1146 13.2185C85.7333 12.5029 86.1938 11.5698 86.5977 10.5583Z"/><path id="path122_2" fill="#fff" d="M87.0856 16.8498C86.7285 17.8714 86.554 18.8728 86.607 19.8481C86.6305 20.2756 86.9043 20.6747 87.3359 20.8503C87.5626 20.9423 87.7893 20.9632 88.0156 20.9125C88.6191 20.7769 88.9308 20.1802 88.7558 19.6409C88.4425 18.6767 87.8196 17.7555 87.0856 16.8498Z"/></g></svg>